:SAMPLES-PER-SECOND 30
:FULLY-SPECIFIED
:DEGREES
56
root  22.7362 38.6109 -2.20504 169.464 -85.0825 -173.551
RightUpLeg  -3.19073 -7.75284 3.37701
RightLeg  21.5741 5.20351 2.58358
RightFoot  -14.2397 -0.203215 -4.23642
RightToes  -1.33073e-015 0 -3.6325e-017
Spine  7.39266 2.03217 15.6566
Spine1  5.35614 5.16189 -7.38835
HEad  -4.71466 -2.1601 -5.33026
LeftShoulder1  -0.519736 4.83749 -32.8208
LeftArm  3.57398 11.4708 -37.8058
LeftForeArm  33.4647 -11.6933 -8.95783
LeftHand  -0.0960763 8.9202 -1.49354
RightShoulder  -0.955347 -6.09775 30.2589
RightArm  29.8117 2.8777 46.0797
RightForeArm  6.27487 18.9539 5.62812
RightHand  -0.135431 5.3323 -1.77204
LeftUpLeg  -21.3514 -3.72012 1.97905
LeftLeg  50.9679 -2.47665 -2.83706
LeftFoot  0.455578 0.240112 -2.33806
LeftToes  -1.63346e-009 7.54925e-011 9.86887e-012
57
root  21.3378 38.7354 -2.3803 177.522 -83.7813 178.659
RightUpLeg  -0.171805 -7.87014 2.3021
RightLeg  19.7151 6.70328 2.90397
RightFoot  -15.2282 -0.249536 -4.30785
RightToes  -1.33073e-015 0 -3.6325e-017
Spine  7.45328 2.57586 15.4182
Spine1  5.12755 5.74054 -8.73488
HEad  -5.08861 -1.77088 -5.75947
LeftShoulder1  -0.595066 5.02262 -33.024
LeftArm  3.8648 13.0302 -36.7524
LeftForeArm  31.7754 -12.4553 -8.56937
LeftHand  -0.111383 9.78832 -1.46413
RightShoulder  -0.936693 -6.05885 30.0804
RightArm  31.8652 3.77698 46.3409
RightForeArm  4.59923 21.4627 4.89782
RightHand  -0.192672 5.99149 -2.29732
LeftUpLeg  -22.4691 -3.10317 1.4743
LeftLeg  40.6082 -2.99694 -2.3862
LeftFoot  -0.530103 0.137911 -1.43433
LeftToes  -1.63346e-009 7.54925e-011 9.86887e-012
58
root  19.9355 38.8126 -2.55347 -177.888 -82.9572 174.313
RightUpLeg  3.01831 -8.05395 1.316
RightLeg  17.5626 7.75335 2.949
RightFoot  -16.0627 -0.29461 -4.52395
RightToes  -1.33073e-015 0 -3.6325e-017
Spine  7.29159 2.86076 14.7147
Spine1  5.15472 5.92527 -9.44094
HEad  -5.32116 -1.14139 -5.96221
LeftShoulder1  -0.550856 4.92518 -32.61
LeftArm  2.14494 15.0093 -36.6462
LeftForeArm  31.4452 -12.613 -8.08671
LeftHand  -0.108815 8.98006 -1.8202
RightShoulder  -0.888397 -5.94384 29.8131
RightArm  32.4221 4.83654 46.5453
RightForeArm  4.72481 23.1499 4.75244
RightHand  -0.181411 6.21086 -2.14918
LeftUpLeg  -22.2971 -2.76522 0.92905
LeftLeg  27.8751 -3.56481 -1.71013
LeftFoot  -0.148704 0.173771 -1.76356
LeftToes  -1.63346e-009 7.54925e-011 9.86887e-012
59
root  18.4793 38.7922 -2.76238 -179.041 -82.7774 175.487
RightUpLeg  6.88445 -7.88401 1.11895
RightLeg  14.7344 8.06273 2.65572
RightFoot  -16.7449 -0.315207 -4.27143
RightToes  -1.33073e-015 0 -3.6325e-017
Spine  6.51773 2.96935 14.2156
Spine1  6.2164 5.96555 -9.7403
HEad  -5.67649 -0.54116 -5.80476
LeftShoulder1  -0.567941 4.96972 -32.5944
LeftArm  0.614544 16.0933 -36.5651
LeftForeArm  32.0565 -12.3769 -7.85179
LeftHand  -0.117332 9.11467 -1.98602
RightShoulder  -0.860283 -5.88132 29.5804
RightArm  32.2362 5.76469 46.7196
RightForeArm  5.00547 24.2051 4.91084
RightHand  -0.194117 6.19404 -2.27864
LeftUpLeg  -21.3186 -1.47248 0.56856
LeftLeg  15.0248 -4.39845 -0.92659
LeftFoot  -0.536305 0.288187 -3.01813
LeftToes  -1.63346e-009 7.54925e-011 9.86887e-012
60
root  17.027 38.7453 -2.93608 -177.587 -82.5909 173.816
RightUpLeg  10.9052 -8.13202 0.244683
RightLeg  12.1275 9.01056 2.55902
RightFoot  -17.182 -0.328724 -4.17971
RightToes  -1.33073e-015 0 -3.6325e-017
Spine  6.31072 3.04281 13.0183
Spine1  6.84436 5.98489 -9.67473
HEad  -5.22369 -0.289213 -5.79092
LeftShoulder1  -0.616701 5.09047 -32.7125
LeftArm  -0.151786 17.1212 -36.4198
LeftForeArm  31.7704 -12.2815 -7.70251
LeftHand  -0.112624 9.46695 -1.71106
RightShoulder  -0.87574 -5.91086 29.7828
RightArm  32.0988 6.58383 46.5398
RightForeArm  5.12992 24.2869 4.92216
RightHand  -0.198937 6.4901 -2.28298
LeftUpLeg  -19.7643 0.824424 -0.744652
LeftLeg  3.40474 -3.51272 -0.29449
LeftFoot  -1.62597 0.381564 -4.39723
LeftToes  -1.63346e-009 7.54925e-011 9.86887e-012
